<svg width="801" height="801" viewBox="0 0 801 801" fill="none" xmlns="http://www.w3.org/2000/svg">
<path fill-rule="evenodd" clip-rule="evenodd" d="M400.765 0.45459C621.678 0.45459 800.765 179.54 800.765 400.455C800.765 621.368 621.678 800.455 400.765 800.455C179.85 800.455 0.764709 621.368 0.764709 400.455C0.764709 179.54 179.85 0.45459 400.765 0.45459Z" fill="#2775CA"/>
<path fill-rule="evenodd" clip-rule="evenodd" d="M492.162 118.798C483.141 115.917 475.762 121.271 475.762 130.74V154.03C475.762 160.38 480.55 167.606 486.514 169.791C582.251 204.858 650.765 296.883 650.765 404.622C650.765 512.359 582.251 604.383 486.514 639.452C479.971 641.846 475.762 648.252 475.762 655.213V678.503C475.762 687.971 483.141 693.327 492.162 690.443C613.153 651.786 700.765 538.437 700.765 404.622C700.765 270.808 613.153 157.456 492.162 118.798Z" fill="white"/>
<path fill-rule="evenodd" clip-rule="evenodd" d="M325.768 130.74C325.768 121.271 318.389 115.917 309.368 118.798C188.377 157.456 100.765 270.806 100.765 404.622C100.765 538.437 188.377 651.786 309.368 690.443C318.389 693.327 325.768 687.971 325.768 678.503V655.213C325.768 648.867 320.98 641.637 315.015 639.452C219.278 604.383 150.765 512.359 150.765 404.622C150.765 296.885 219.278 204.858 315.015 169.791C320.98 167.606 325.768 160.38 325.768 154.03V130.74Z" fill="white"/>
<path d="M503.057 482.681L480.174 472.46C475.141 470.21 469.195 472.317 466.759 477.266C455.959 499.183 438.007 513.153 414.299 513.153C392.83 513.153 375.613 502.64 362.418 481.398C357.26 473.177 353.159 464.001 350.036 453.953H411.481C415.38 453.953 418.944 451.756 420.699 448.281L435.362 428.49C438.824 421.625 433.839 413.517 426.144 413.517H343.123C342.884 409.261 342.741 404.92 342.741 400.449C342.693 396.013 342.818 391.666 343.051 387.392H411.481C415.38 387.392 418.944 385.201 420.699 381.72L435.362 361.935C438.824 355.069 433.839 346.956 426.144 346.956H349.965C361.105 310.629 384.371 286.828 414.299 287.295C437.105 287.295 454.807 299.781 466.168 320.231C468.711 324.815 474.436 326.571 479.236 324.453L502.233 314.3C507.738 311.87 510.078 305.216 507.165 299.952C485.935 261.608 454.98 242.348 414.299 242.348C377.177 242.348 347.433 257.107 324.848 286.401C311.648 303.655 302.46 323.898 297.004 346.956H263.595C259.702 346.956 256.138 349.153 254.383 352.628L239.72 372.413C236.251 379.278 241.242 387.392 248.932 387.392H291.487C291.278 391.69 291.081 395.995 291.081 400.449C291.027 404.866 291.135 409.213 291.32 413.517H263.595C259.702 413.517 256.138 415.708 254.383 419.189L239.72 438.974C236.251 445.84 241.242 453.953 248.932 453.953H296.908C312.084 516.663 355.762 559.434 414.299 558.544C455.857 558.544 487.183 537.887 508.096 496.747C510.759 491.511 508.419 485.081 503.057 482.681Z" fill="white"/>
</svg>
