<?xml version="1.0" encoding="utf-8"?>
<!-- Uploaded to: SVG Repo, www.svgrepo.com, Generator: SVG Repo Mixer Tools -->
<svg width="800px" height="800px" viewBox="0 0 128 128" xmlns="http://www.w3.org/2000/svg" xmlns:xlink="http://www.w3.org/1999/xlink" aria-hidden="true" role="img" class="iconify iconify--noto" preserveAspectRatio="xMidYMid meet">
<path fill="#ffffff" d="M4 4h120v120H4z">
</path>
<g fill="none" stroke="#b0bec5" stroke-width="1.993" stroke-miterlimit="10">
<path d="M24.7 4.2v119.6">
</path>
<path d="M44.35 4.2v119.6">
</path>
<path d="M64 4.2v119.6">
</path>
<path d="M83.65 4.2v119.6">
</path>
<path d="M103.3 4.2v119.6">
</path>
</g>
<g fill="none" stroke="#b0bec5" stroke-width="2" stroke-miterlimit="10">
<path d="M123.8 24.66H4.15">
</path>
<path d="M123.81 44.33H4.16">
</path>
<path d="M123.83 64H4.17">
</path>
<path d="M123.84 83.67H4.19">
</path>
<path d="M123.85 103.34H4.2">
</path>
</g>
<path fill="#e53935" d="M5.1 122.98l-.08-6.16L31.94 68.3l23.7 21.91l63.78-85.1h3.49l.14 5.16l-66.6 88.86l-23.02-21.28l-24.98 45.16z">
</path>
<path d="M122.01 5.99V122H5.99V5.99h116.02M124 4H4v120h120V4z" fill="#b0bec5">
</path>
</svg>