<svg width="464" height="477" viewBox="0 0 464 477" fill="none" xmlns="http://www.w3.org/2000/svg">
<g clip-path="url(#clip0_6_11)">
<path d="M231.62 0.0749969H232C360.155 0.0749969 464.085 104.005 464.085 232.16V245.08C464.085 373.235 360.155 477.165 232 477.165H231.62C103.465 477.165 -0.464996 373.235 -0.464996 245.08V232.16C-0.464996 104.005 103.465 0.0749969 231.62 0.0749969Z" fill="#232323"/>
<path d="M331.085 179.625C330.325 180.48 329.375 181.145 328.33 181.525C327.285 182 326.145 182.19 325.005 182.19H109.83C102.23 182.19 98.335 172.69 103.655 166.99L138.995 129.465C139.755 128.61 140.705 127.945 141.845 127.47C142.89 126.995 144.03 126.805 145.17 126.805H361.2C368.895 126.805 372.695 136.4 367.28 142.1L331.085 179.625ZM331.085 347.395C329.47 349.01 327.285 349.96 325.005 349.96H109.83C102.23 349.96 98.335 340.65 103.655 335.14L138.995 298.47C139.755 297.615 140.8 296.95 141.845 296.57C142.89 296.095 144.03 295.905 145.17 295.905H361.2C368.895 295.905 372.695 305.31 367.28 310.82L331.085 347.395ZM331.085 213.92C329.47 212.305 327.285 211.355 325.005 211.355H109.83C102.23 211.355 98.335 220.665 103.655 226.175L138.995 262.845C139.755 263.7 140.8 264.365 141.845 264.745C142.89 265.22 144.03 265.41 145.17 265.41H361.2C368.895 265.41 372.695 256.005 367.28 250.495L331.085 213.92Z" fill="url(#paint0_linear_6_11)"/>
</g>
<defs>
<linearGradient id="paint0_linear_6_11" x1="117.624" y1="352.745" x2="352.687" y2="123.892" gradientUnits="userSpaceOnUse">
<stop stop-color="#CF41E8"/>
<stop offset="1" stop-color="#10F2B0"/>
</linearGradient>
<clipPath id="clip0_6_11">
<rect width="464" height="477" fill="white"/>
</clipPath>
</defs>
</svg>
